<svg width="1200" height="630" viewBox="0 0 1200 630" fill="none" xmlns="http://www.w3.org/2000/svg">
  <defs>
    <linearGradient id="bgGradient" x1="0%" y1="0%" x2="100%" y2="100%">
      <stop offset="0%" style="stop-color:#0f172a"/>
      <stop offset="50%" style="stop-color:#1e293b"/>
      <stop offset="100%" style="stop-color:#0f172a"/>
    </linearGradient>
    <linearGradient id="textGradient" x1="0%" y1="0%" x2="100%" y2="0%">
      <stop offset="0%" style="stop-color:#22d3ee"/>
      <stop offset="100%" style="stop-color:#3b82f6"/>
    </linearGradient>
    <linearGradient id="accentGradient" x1="0%" y1="0%" x2="100%" y2="0%">
      <stop offset="0%" style="stop-color:#06b6d4"/>
      <stop offset="100%" style="stop-color:#6366f1"/>
    </linearGradient>
    <filter id="glow" x="-50%" y="-50%" width="200%" height="200%">
      <feGaussianBlur stdDeviation="10" result="coloredBlur"/>
      <feMerge>
        <feMergeNode in="coloredBlur"/>
        <feMergeNode in="SourceGraphic"/>
      </feMerge>
    </filter>
  </defs>
  
  <!-- Background -->
  <rect width="1200" height="630" fill="url(#bgGradient)"/>
  
  <!-- Grid pattern -->
  <pattern id="grid" width="40" height="40" patternUnits="userSpaceOnUse">
    <path d="M 40 0 L 0 0 0 40" fill="none" stroke="#334155" stroke-width="0.5" opacity="0.3"/>
  </pattern>
  <rect width="1200" height="630" fill="url(#grid)"/>
  
  <!-- Decorative circles -->
  <circle cx="150" cy="100" r="200" fill="#06b6d4" opacity="0.05"/>
  <circle cx="1050" cy="530" r="250" fill="#6366f1" opacity="0.05"/>
  <circle cx="900" cy="150" r="150" fill="#22d3ee" opacity="0.03"/>
  
  <!-- Blockchain blocks decoration -->
  <g transform="translate(100, 400)" opacity="0.15">
    <rect x="0" y="0" width="60" height="60" rx="8" stroke="#22d3ee" stroke-width="2" fill="none"/>
    <rect x="80" y="20" width="60" height="60" rx="8" stroke="#3b82f6" stroke-width="2" fill="none"/>
    <rect x="160" y="0" width="60" height="60" rx="8" stroke="#6366f1" stroke-width="2" fill="none"/>
    <line x1="60" y1="30" x2="80" y2="50" stroke="#22d3ee" stroke-width="2"/>
    <line x1="140" y1="50" x2="160" y2="30" stroke="#3b82f6" stroke-width="2"/>
  </g>
  
  <g transform="translate(950, 80)" opacity="0.15">
    <rect x="0" y="0" width="50" height="50" rx="6" stroke="#22d3ee" stroke-width="2" fill="none"/>
    <rect x="60" y="15" width="50" height="50" rx="6" stroke="#3b82f6" stroke-width="2" fill="none"/>
    <line x1="50" y1="25" x2="60" y2="40" stroke="#22d3ee" stroke-width="2"/>
  </g>
  
  <!-- Logo icon -->
  <g transform="translate(520, 140)" filter="url(#glow)">
    <rect x="0" y="0" width="160" height="160" rx="32" fill="url(#accentGradient)" opacity="0.2"/>
    <rect x="10" y="10" width="140" height="140" rx="28" stroke="url(#textGradient)" stroke-width="3" fill="none"/>
    <!-- Code brackets -->
    <path d="M50 60 L30 80 L50 100" stroke="#22d3ee" stroke-width="6" stroke-linecap="round" stroke-linejoin="round" fill="none"/>
    <path d="M110 60 L130 80 L110 100" stroke="#3b82f6" stroke-width="6" stroke-linecap="round" stroke-linejoin="round" fill="none"/>
    <!-- Block in center -->
    <rect x="60" y="55" width="40" height="40" rx="8" fill="url(#textGradient)" opacity="0.8"/>
  </g>
  
  <!-- Main title -->
  <text x="600" y="370" text-anchor="middle" font-family="system-ui, -apple-system, sans-serif" font-size="72" font-weight="800" fill="url(#textGradient)">
    Celo Builder
  </text>
  
  <!-- Subtitle -->
  <text x="600" y="430" text-anchor="middle" font-family="system-ui, -apple-system, sans-serif" font-size="28" fill="#94a3b8">
    No-Code Smart Contract Builder for Celo Blockchain
  </text>
  
  <!-- Features bar -->
  <g transform="translate(200, 480)">
    <rect x="0" y="0" width="800" height="50" rx="25" fill="#1e293b" stroke="#334155" stroke-width="1"/>
    <text x="80" y="32" font-family="system-ui, sans-serif" font-size="18" fill="#22d3ee">✦ ERC20</text>
    <text x="220" y="32" font-family="system-ui, sans-serif" font-size="18" fill="#3b82f6">✦ NFT</text>
    <text x="340" y="32" font-family="system-ui, sans-serif" font-size="18" fill="#6366f1">✦ DeFi</text>
    <text x="460" y="32" font-family="system-ui, sans-serif" font-size="18" fill="#8b5cf6">✦ Staking</text>
    <text x="600" y="32" font-family="system-ui, sans-serif" font-size="18" fill="#a855f7">✦ Governance</text>
  </g>
  
  <!-- Website URL -->
  <text x="600" y="580" text-anchor="middle" font-family="system-ui, sans-serif" font-size="20" fill="#64748b">
    celobuilder.vercel.app
  </text>
</svg>
